#!OML:ASF F:\VICON\USERDATA\INSTALL\rory3\rory3.ASF
:FULLY-SPECIFIED
:DEGREES
227
root 1.98417 18.9036 -4.33846 -3.68876 -8.63552 2.10003
lowerback 5.12472 1.20328 -3.35309
upperback 0.942345 1.39614 -1.03341
thorax -1.95707 0.713138 0.723181
lowerneck -10.9009 -2.54226 -6.11559
upperneck 27.1119 -4.27637 7.06284
head 10.7772 -1.78658 3.06524
rclavicle 3.75517e-015 -1.55052e-014
rhumerus -24.0508 36.3454 -92.7124
rradius 88.9921
rwrist -14.0394
rhand -37.5367 11.1047
rfingers 7.12502
rthumb -10.5924 -18.6084
lclavicle 3.75517e-015 -1.55052e-014
lhumerus -14.4611 -39.6078 83.5146
lradius 100.241
lwrist -11.6002
lhand -3.7242 18.0571
lfingers 7.12502
lthumb 22.0188 46.8237
rfemur 4.67311 19.2361 16.7022
rtibia 13.3006
rfoot -13.4461 -22.1508
rtoes -6.95305
lfemur 0 0 0
ltibia 0
lfoot 0 0
ltoes 0
228
root 1.98532 18.9028 -4.34037 -3.73531 -8.66738 2.09817
lowerback 5.19264 1.2105 -3.33281
upperback 0.935488 1.40346 -1.03918
thorax -2.00176 0.717266 0.703842
lowerneck -10.9263 -2.55537 -6.17559
upperneck 27.1118 -4.29782 7.12436
head 10.7867 -1.79504 3.09536
rclavicle -7.70601e-015 -5.36719e-015
rhumerus -24.1431 36.4012 -92.7841
rradius 88.9535
rwrist -14.0934
rhand -37.6692 11.2353
rfingers 7.12502
rthumb -10.7202 -18.4712
lclavicle -7.70601e-015 -5.36719e-015
lhumerus -14.4713 -39.8119 83.4185
lradius 100.289
lwrist -12.3035
lhand -4.09424 18.0509
lfingers 7.12502
lthumb 21.6635 46.8589
rfemur 4.70768 19.2515 16.7113
rtibia 13.3148
rfoot -13.4678 -22.1172
rtoes -6.88262
lfemur 0 0 0
ltibia 0
lfoot 0 0
ltoes 0
229
root 1.98713 18.9029 -4.34011 -3.76617 -8.71265 2.13137
lowerback 5.20658 1.22229 -3.33262
upperback 0.926662 1.41787 -1.05745
thorax -2.01872 0.724691 0.683509
lowerneck -10.9109 -2.56298 -6.18702
upperneck 27.046 -4.30391 7.1275
head 10.7599 -1.79918 3.09628
rclavicle -3.63869e-014 5.96354e-015
rhumerus -24.2315 36.428 -92.853
rradius 88.9231
rwrist -14.1471
rhand -37.7116 11.2172
rfingers 7.12502
rthumb -10.7611 -18.4872
lclavicle -3.63869e-014 5.96354e-015
lhumerus -14.4892 -40.0305 83.3641
lradius 100.361
lwrist -13.0285
lhand -4.43947 18.3107
lfingers 7.12502
lthumb 21.3319 47.1566
rfemur 4.71532 19.2212 16.6586
rtibia 13.3113
rfoot -13.4222 -22.0428
rtoes -6.88905
lfemur 0 0 0
ltibia 0
lfoot 0 0
ltoes 0
230
root 1.98625 18.9043 -4.34001 -3.72967 -8.75063 2.12792
lowerback 5.15542 1.21886 -3.35187
upperback 0.902562 1.41423 -1.04378
thorax -2.01561 0.723259 0.709352
lowerneck -10.9038 -2.54241 -6.19345
upperneck 26.9835 -4.25875 7.0893
head 10.7308 -1.78386 3.08776
rclavicle -1.79062e-014 1.37161e-014
rhumerus -24.323 36.4687 -92.9094
rradius 88.9013
rwrist -14.2454
rhand -37.6257 11.1554
rfingers 7.12502
rthumb -10.6783 -18.5533
lclavicle -1.79062e-014 1.37161e-014
lhumerus -14.5102 -40.2091 83.3328
lradius 100.458
lwrist -13.9336
lhand -4.76367 18.6623
lfingers 7.12502
lthumb 21.0205 47.5431
rfemur 4.65763 19.2176 16.6446
rtibia 13.2945
rfoot -13.3254 -22.021
rtoes -6.99431
lfemur 0 0 0
ltibia 0
lfoot 0 0
ltoes 0
231
root 1.98667 18.9045 -4.33807 -3.71349 -8.54444 2.12609
lowerback 5.10874 1.13282 -3.35094
upperback 0.90697 1.30195 -1.04773
thorax -1.98063 0.666812 0.713675
lowerneck -10.9811 -2.5091 -6.21187
upperneck 27.0051 -4.20663 7.09895
head 10.7506 -1.75916 3.10123
rclavicle 2.34908e-014 -1.86858e-014
rhumerus -24.4055 36.5135 -92.9871
rradius 88.9106
rwrist -14.3897
rhand -37.4888 10.8745
rfingers 7.12502
rthumb -10.5462 -18.8409
lclavicle 2.34908e-014 -1.86858e-014
lhumerus -14.4892 -40.3355 83.2342
lradius 100.505
lwrist -14.8849
lhand -5.00819 18.8584
lfingers 7.12502
lthumb 20.7855 47.7651
rfemur 4.71982 19.1854 16.6785
rtibia 13.2707
rfoot -13.3621 -22.187
rtoes -6.98985
lfemur 0 0 0
ltibia 0
lfoot 0 0
ltoes 0
232
root 1.98812 18.9032 -4.33805 -3.73617 -8.3365 2.09677
lowerback 5.16047 1.05418 -3.30384
upperback 0.907162 1.19737 -1.05549
thorax -2.0043 0.614676 0.685671
lowerneck -11.0801 -2.48647 -6.18181
upperneck 27.0341 -4.16827 7.06659
head 10.7766 -1.74018 3.0892
rclavicle -5.13734e-015 7.7526e-015
rhumerus -24.5253 36.5239 -93.096
rradius 88.9345
rwrist -14.4593
rhand -37.4721 10.661
rfingers 7.12502
rthumb -10.53 -19.0553
lclavicle -5.13734e-015 7.7526e-015
lhumerus -14.4685 -40.4573 83.1175
lradius 100.555
lwrist -15.7985
lhand -5.13001 18.9286
lfingers 7.12502
lthumb 20.6685 47.848
rfemur 4.83725 19.1803 16.758
rtibia 13.2317
rfoot -13.4706 -22.3694
rtoes -6.84745
lfemur 0 0 0
ltibia 0
lfoot 0 0
ltoes 0
233
root 1.98534 18.9017 -4.34151 -3.76097 -8.59812 2.05286
lowerback 5.21451 1.13981 -3.29586
upperback 0.909399 1.30973 -1.04014
thorax -2.03651 0.671019 0.68804
lowerneck -11.1316 -2.47587 -6.12122
upperneck 26.9804 -4.13259 6.96689
head 10.7606 -1.72814 3.04519
rclavicle -1.1222e-014 -8.34896e-015
rhumerus -24.5903 36.5245 -93.1535
rradius 88.9509
rwrist -14.5338
rhand -37.4991 10.5479
rfingers 7.12502
rthumb -10.5561 -19.167
lclavicle -1.1222e-014 -8.34896e-015
lhumerus -14.3385 -40.6665 82.9532
lradius 100.604
lwrist -16.7248
lhand -5.55462 19.1264
lfingers 7.12502
lthumb 20.2605 48.0897
rfemur 4.83309 19.2889 16.7949
rtibia 13.1665
rfoot -13.4246 -22.2199
rtoes -6.82104
lfemur 0 0 0
ltibia 0
lfoot 0 0
ltoes 0
234
root 1.98255 18.9017 -4.34059 -3.75884 -8.80562 2.04596
lowerback 5.13133 1.21281 -3.31034
upperback 0.956386 1.41092 -1.04597
thorax -1.94554 0.719911 0.685393
lowerneck -11.2078 -2.46843 -6.0807
upperneck 26.8972 -4.10819 6.91889
head 10.7409 -1.71689 3.02146
rclavicle -4.31207e-014 6.75868e-015
rhumerus -24.5401 36.538 -93.1463
rradius 88.9439
rwrist -14.6661
rhand -37.5303 10.2614
rfingers 7.12502
rthumb -10.5862 -19.452
lclavicle -4.31207e-014 6.75868e-015
lhumerus -14.1217 -40.8738 82.7459
lradius 100.638
lwrist -17.5155
lhand -6.18493 19.441
lfingers 7.12502
lthumb 19.6546 48.4675
rfemur 4.82995 19.3485 16.7847
rtibia 13.0953
rfoot -13.3846 -22.0734
rtoes -6.76633
lfemur 0 0 0
ltibia 0
lfoot 0 0
ltoes 0
235
root 1.98502 18.9029 -4.33648 -3.77173 -8.56989 2.01716
lowerback 5.07813 1.12799 -3.23828
upperback 1.00134 1.30528 -1.05798
thorax -1.86377 0.665396 0.641764
lowerneck -11.259 -2.45135 -6.0851
upperneck 26.8006 -4.07371 6.91838
head 10.7124 -1.7007 3.02406
rclavicle -5.38862e-014 1.59028e-015
rhumerus -24.5552 36.5581 -93.166
rradius 88.9116
rwrist -14.6763
rhand -37.6845 9.9713
rfingers 7.12502
rthumb -10.7349 -19.7344
lclavicle -5.38862e-014 1.59028e-015
lhumerus -13.9834 -40.9746 82.6005
lradius 100.659
lwrist -18.2314
lhand -6.63544 19.501
lfingers 7.12502
lthumb 19.2214 48.5711
rfemur 4.95647 19.2506 16.8482
rtibia 13.0354
rfoot -13.4264 -22.2137
rtoes -6.66736
lfemur 0 0 0
ltibia 0
lfoot 0 0
ltoes 0
236
root 1.99059 18.9016 -4.335 -3.88344 -8.29713 1.98565
lowerback 5.20147 1.02359 -3.13264
upperback 1.02336 1.16707 -1.06755
thorax -1.90286 0.596168 0.580283
lowerneck -11.2347 -2.43667 -6.09973
upperneck 26.7011 -4.04145 6.90672
head 10.668 -1.68945 3.02435
rclavicle -4.04713e-015 -1.37161e-014
rhumerus -24.6846 36.5666 -93.241
rradius 88.871
rwrist -14.6495
rhand -37.8199 10.0872
rfingers 7.12502
rthumb -10.8655 -19.6117
lclavicle -4.04713e-015 -1.37161e-014
lhumerus -13.9044 -41.0741 82.4672
lradius 100.692
lwrist -18.9024
lhand -6.94855 19.6111
lfingers 7.12502
lthumb 18.9203 48.7109
rfemur 5.17595 19.1161 16.9339
rtibia 12.9782
rfoot -13.4192 -22.3592
rtoes -6.66644
lfemur 0 0 0
ltibia 0
lfoot 0 0
ltoes 0
237
root 1.99347 18.9007 -4.33489 -3.95304 -8.20325 1.96975
lowerback 5.29926 0.982514 -3.07381
upperback 1.01849 1.11111 -1.07865
thorax -1.95932 0.568617 0.538092
lowerneck -11.2472 -2.42701 -6.12245
upperneck 26.6887 -4.02385 6.91654
head 10.6652 -1.68239 3.03378
rclavicle 1.61699e-014 -1.39149e-015
rhumerus -24.8312 36.5269 -93.3321
rradius 88.8384
rwrist -14.6499
rhand -37.9179 10.6799
rfingers 7.12502
rthumb -10.9601 -19.014
lclavicle 1.61699e-014 -1.39149e-015
lhumerus -13.888 -41.126 82.3609
lradius 100.751
lwrist -19.3955
lhand -7.50252 19.8669
lfingers 7.12502
lthumb 18.3875 49.0179
rfemur 5.30334 19.0624 16.974
rtibia 12.9097
rfoot -13.3554 -22.4086
rtoes -6.79437
lfemur 0 0 0
ltibia 0
lfoot 0 0
ltoes 0
238
root 1.9944 18.9011 -4.33409 -3.94135 -8.18656 2.02622
lowerback 5.27715 0.976019 -3.09921
upperback 1.00795 1.10087 -1.11646
thorax -1.95722 0.563635 0.51443
lowerneck -11.2933 -2.41474 -6.20755
upperneck 26.6883 -4.01327 7.02116
head 10.6772 -1.67325 3.08792
rclavicle -9.2e-015 1.66979e-014
rhumerus -24.9402 36.4492 -93.4206
rradius 88.8114
rwrist -14.5506
rhand -38.2044 11.2437
rfingers 7.12502
rthumb -11.2364 -18.4354
lclavicle -9.2e-015 1.66979e-014
lhumerus -13.8375 -41.0853 82.2554
lradius 100.764
lwrist -19.7661
lhand -8.24396 20.0754
lfingers 7.12502
lthumb 17.6741 49.2921
rfemur 5.32061 19.0176 16.8937
rtibia 12.8521
rfoot -13.3429 -22.3695
rtoes -6.81901
lfemur 0 0 0
ltibia 0
lfoot 0 0
ltoes 0
239
root 1.99511 18.9 -4.33499 -3.95789 -8.20465 2.0213
lowerback 5.29039 0.984727 -3.06908
upperback 1.00967 1.11335 -1.12864
thorax -1.96245 0.569699 0.483963
lowerneck -11.2639 -2.41159 -6.3306
upperneck 26.6031 -4.01329 7.15209
head 10.6449 -1.67138 3.15533
rclavicle 2.93363e-014 -1.98785e-015
rhumerus -24.9937 36.4004 -93.4486
rradius 88.786
rwrist -14.4618
rhand -38.4254 11.416
rfingers 7.12502
rthumb -11.4495 -18.2513
lclavicle 2.93363e-014 -1.98785e-015
lhumerus -13.7395 -41.0879 82.1624
lradius 100.745
lwrist -20.0983
lhand -8.70536 20.458
lfingers 7.12502
lthumb 17.23 49.7141
rfemur 5.35597 19.0319 16.9008
rtibia 12.8287
rfoot -13.3868 -22.3429
rtoes -6.66022
lfemur 0 0 0
ltibia 0
lfoot 0 0
ltoes 0
